<svg xmlns="http://www.w3.org/2000/svg" viewBox="0 0 64 64">
  <g>
    <ellipse cx="32" cy="11" rx="6" ry="11" fill="#FFC83D" transform="rotate(0 32 32)"/>
    <ellipse cx="32" cy="11" rx="6" ry="11" fill="#FFC83D" transform="rotate(30 32 32)"/>
    <ellipse cx="32" cy="11" rx="6" ry="11" fill="#FFC83D" transform="rotate(60 32 32)"/>
    <ellipse cx="32" cy="11" rx="6" ry="11" fill="#FFC83D" transform="rotate(90 32 32)"/>
    <ellipse cx="32" cy="11" rx="6" ry="11" fill="#FFC83D" transform="rotate(120 32 32)"/>
    <ellipse cx="32" cy="11" rx="6" ry="11" fill="#FFC83D" transform="rotate(150 32 32)"/>
    <ellipse cx="32" cy="11" rx="6" ry="11" fill="#FFC83D" transform="rotate(180 32 32)"/>
    <ellipse cx="32" cy="11" rx="6" ry="11" fill="#FFC83D" transform="rotate(210 32 32)"/>
    <ellipse cx="32" cy="11" rx="6" ry="11" fill="#FFC83D" transform="rotate(240 32 32)"/>
    <ellipse cx="32" cy="11" rx="6" ry="11" fill="#FFC83D" transform="rotate(270 32 32)"/>
    <ellipse cx="32" cy="11" rx="6" ry="11" fill="#FFC83D" transform="rotate(300 32 32)"/>
    <ellipse cx="32" cy="11" rx="6" ry="11" fill="#FFC83D" transform="rotate(330 32 32)"/>
  </g>
  <circle cx="32" cy="32" r="11" fill="#5C3A21"/>
  <circle cx="32" cy="32" r="7" fill="#A0673E"/>
</svg>
